HIERARCHY
ROOT SpineBase
{
  OFFSET 0.000000 0.000000 0.000000
  CHANNELS 6 Xposition Yposition Zposition Zrotation Xrotation Yrotation
  JOINT SpineMid
  {
    OFFSET 0.000000 22.236991 0.000000
    CHANNELS 3 Zrotation Xrotation Yrotation
    JOINT SpineShoulder
    {
      OFFSET 0.018504 16.748414 -0.570431
      CHANNELS 3 Zrotation Xrotation Yrotation
      JOINT Neck
      {
        OFFSET -0.008180 5.633571 -0.447946
        CHANNELS 3 Zrotation Xrotation Yrotation
        JOINT Head
        {
          OFFSET -0.546574 12.450914 2.400506
          CHANNELS 3 Zrotation Xrotation Yrotation
          End Site
          {
            OFFSET 0 0 0
          }
        }
      }
      JOINT ShoulderLeft
      {
        OFFSET -11.583916 -2.167554 5.407142
        CHANNELS 3 Zrotation Xrotation Yrotation
        JOINT ElbowLeft
        {
          OFFSET -6.402058 -21.977126 -2.780402
          CHANNELS 3 Zrotation Xrotation Yrotation
          JOINT WristLeft
          {
            OFFSET -10.855926 -10.295923 7.174142
            CHANNELS 3 Zrotation Xrotation Yrotation
            JOINT HandLeft
            {
              OFFSET -0.225121 -1.335845 -1.299788
              CHANNELS 3 Zrotation Xrotation Yrotation
              JOINT HandTipLeft
              {
                OFFSET 2.183534 -2.739337 0.796927
                CHANNELS 3 Zrotation Xrotation Yrotation
                End Site
                {
                  OFFSET 0 0 0
                }
              }
              JOINT ThumbLeft
              {
                OFFSET 1.129333 2.813521 1.883370
                CHANNELS 3 Zrotation Xrotation Yrotation
                End Site
                {
                  OFFSET 0 0 0
                }
              }
            }
          }
        }
      }
      JOINT ShoulderRight
      {
        OFFSET 8.246612 -2.467475 -8.904530
        CHANNELS 3 Zrotation Xrotation Yrotation
        JOINT ElbowRight
        {
          OFFSET 1.876710 -19.027548 -5.301979
          CHANNELS 3 Zrotation Xrotation Yrotation
          JOINT WristRight
          {
            OFFSET -17.903042 -9.268895 -6.833128
            CHANNELS 3 Zrotation Xrotation Yrotation
            JOINT HandRight
            {
              OFFSET -3.645858 -1.024586 -1.981975
              CHANNELS 3 Zrotation Xrotation Yrotation
              JOINT HandTipRight
              {
                OFFSET -6.562341 -2.233968 -4.346384
                CHANNELS 3 Zrotation Xrotation Yrotation
                End Site
                {
                  OFFSET 0 0 0
                }
              }
              JOINT ThumbRight
              {
                OFFSET 0.594957 -2.124260 -5.705854
                CHANNELS 3 Zrotation Xrotation Yrotation
                End Site
                {
                  OFFSET 0 0 0
                }
              }
            }
          }
        }
      }
    }
  }
  JOINT HipLeft
  {
    OFFSET -4.607652 1.114012 0.061404
    CHANNELS 3 Zrotation Xrotation Yrotation
    JOINT KneeLeft
    {
      OFFSET -21.639588 0.331250 -25.306568
      CHANNELS 3 Zrotation Xrotation Yrotation
      JOINT AnkleLeft
      {
        OFFSET 0.023036 -36.211026 -0.041158
        CHANNELS 3 Zrotation Xrotation Yrotation
        JOINT FootLeft
        {
          OFFSET -4.043282 -3.679106 -4.272418
          CHANNELS 3 Zrotation Xrotation Yrotation
          End Site
          {
            OFFSET 0 0 0
          }
        }
      }
    }
  }
  JOINT HipRight
  {
    OFFSET 4.237149 1.614659 -5.548528
    CHANNELS 3 Zrotation Xrotation Yrotation
    JOINT KneeRight
    {
      OFFSET -21.170866 0.735491 -24.523205
      CHANNELS 3 Zrotation Xrotation Yrotation
      JOINT AnkleRight
      {
        OFFSET -2.609330 -26.951465 -3.060735
        CHANNELS 3 Zrotation Xrotation Yrotation
        JOINT FootRight
        {
          OFFSET -2.649641 -7.115233 2.884674
          CHANNELS 3 Zrotation Xrotation Yrotation
          End Site
          {
            OFFSET 0 0 0
          }
        }
      }
    }
  }
}
MOTION
Frames: 15
Frame Time: 0.033333
28.227590 40.325763 370.191155 -1.685230 1.341138 2.324592 2.323732 0.691789 -2.262074 0.240627 0.351130 0.054759 -6.955972 -8.884836 0.198157 0.000000 0.000000 0.000000 -51.826097 34.609439 9.845870 87.109248 -12.025205 69.636436 -68.321239 -52.461999 -28.112255 47.506036 51.455809 -56.257479 0.000000 0.000000 0.000000 0.000000 0.000000 0.000000 -50.218701 50.686380 39.196977 -93.397247 -6.167806 -24.203274 17.119597 -3.212649 15.506758 -7.982333 -42.486968 14.570392 0.000000 0.000000 0.000000 0.000000 0.000000 0.000000 4.030633 -4.600158 -4.334555 -2.637788 2.997573 2.244621 -3.273850 21.308287 -15.327395 0.000000 0.000000 0.000000 1.712129 -1.794940 -9.130118 -1.270423 -6.046652 7.614125 17.398571 11.042779 1.181981 0.000000 0.000000 0.000000
28.115907 40.257399 370.329272 -1.328616 1.549566 2.060066 2.704263 1.096749 -1.975616 0.859092 0.646986 0.145560 -11.796363 -11.360773 0.006042 0.000000 0.000000 0.000000 -51.066051 33.337000 8.139778 95.722234 -14.783302 93.109078 -72.202853 -37.405517 -30.379161 65.204645 36.602784 -72.989205 0.000000 0.000000 0.000000 0.000000 0.000000 0.000000 -48.626752 49.563854 36.183495 -91.762625 -4.171314 -23.159183 19.776641 -7.301181 15.115972 -1.361148 -65.774012 23.243566 0.000000 0.000000 0.000000 0.000000 0.000000 0.000000 3.697755 -4.814578 -4.406634 -2.667877 3.018345 2.588237 5.936283 17.577594 -23.954388 0.000000 0.000000 0.000000 1.275352 -1.875169 -9.031839 -1.156045 -6.061612 7.764414 17.255758 10.995036 1.165477 0.000000 0.000000 0.000000
27.994267 40.133314 370.360351 -0.771073 2.042078 1.034015 2.897919 1.374503 -0.926322 1.398460 0.924558 0.231976 -17.021043 -13.942793 -0.435839 0.000000 0.000000 0.000000 -49.843892 32.083497 6.280566 120.195298 -19.659171 146.916121 -74.273915 -19.864740 -32.217244 90.354411 20.830124 -114.312653 0.000000 0.000000 0.000000 0.000000 0.000000 0.000000 -45.954348 47.545259 32.103221 -90.524621 -2.840646 -21.189985 24.361612 -6.940479 12.182427 27.046518 -76.168806 55.460358 0.000000 0.000000 0.000000 0.000000 0.000000 0.000000 3.145722 -5.145087 -3.459908 -2.594873 2.933846 2.670761 12.064499 15.229456 -30.548248 0.000000 0.000000 0.000000 0.562508 -2.098229 -8.243520 -0.917652 -6.264706 7.982951 17.078977 11.028813 1.099465 0.000000 0.000000 0.000000
27.882195 40.008964 370.242354 0.884774 3.180600 -0.174810 2.483051 1.371220 0.289132 1.945678 1.100234 0.349204 -24.938958 -17.366806 -1.475741 0.000000 0.000000 0.000000 -47.159444 28.351417 3.392115 176.848321 -27.908451 -141.807880 -97.954215 -43.316943 -67.845194 73.596691 -0.166402 161.778289 0.000000 0.000000 0.000000 0.000000 0.000000 0.000000 -42.074554 43.899426 26.324712 -87.735312 0.324554 -18.062189 28.454317 -11.755912 12.462282 42.262339 -73.714952 73.076144 0.000000 0.000000 0.000000 0.000000 0.000000 0.000000 1.510498 -6.107177 -2.166463 -2.494968 2.826712 2.547315 14.626835 15.886260 -34.833508 0.000000 0.000000 0.000000 -1.189834 -3.048357 -7.287805 -0.850691 -6.481898 8.158077 17.046143 11.091794 1.003082 0.000000 0.000000 0.000000
28.053241 39.894406 370.052478 1.835058 3.907914 -2.419408 2.224716 1.303945 2.524515 2.127317 1.118735 0.407386 -28.682045 -18.592233 -2.078803 0.000000 0.000000 0.000000 -42.916417 23.831530 1.099168 -146.401949 -19.528759 -104.671489 -97.117192 -21.996697 -99.854985 49.795792 5.424720 153.275619 0.000000 0.000000 0.000000 0.000000 0.000000 0.000000 -37.293350 39.281465 20.872409 -85.204544 2.054172 -14.132457 26.977708 -10.420851 12.711615 23.057732 -68.548587 57.986829 0.000000 0.000000 0.000000 0.000000 0.000000 0.000000 0.675282 -6.590332 0.878306 -2.304465 2.640388 1.689845 17.329123 10.681108 -34.691931 0.000000 0.000000 0.000000 -2.008930 -3.828463 -4.882740 -0.964199 -6.571431 7.929023 17.055329 11.167210 0.916317 0.000000 0.000000 0.000000
28.288669 39.511874 369.798440 1.947456 4.269617 -3.605119 1.926148 1.026821 3.702474 1.975860 0.993164 0.390931 -28.141238 -18.096187 -1.884327 0.000000 0.000000 0.000000 -39.600939 21.523437 0.300476 -132.807824 -10.861925 -90.998097 -91.410481 -9.535653 -114.712880 37.390520 8.337341 153.928795 0.000000 0.000000 0.000000 0.000000 0.000000 0.000000 -33.053657 35.077833 17.306510 -81.813091 4.412741 -11.089770 23.190257 -6.717001 12.391323 17.498805 -66.423093 54.432481 0.000000 0.000000 0.000000 0.000000 0.000000 0.000000 0.082690 -6.231635 2.822940 -0.750080 1.635044 0.806734 14.823924 12.448180 -33.519492 0.000000 0.000000 0.000000 -2.480892 -3.694580 -3.434946 -0.625636 -7.129836 7.616219 17.080177 11.220734 0.840759 0.000000 0.000000 0.000000
28.528477 39.286501 369.563278 1.337000 4.219162 -0.770880 1.563859 0.543673 0.859951 1.643475 0.786095 0.314520 -23.611417 -15.950065 -1.028233 0.000000 0.000000 0.000000 -33.841256 18.925986 -0.302592 -126.958225 -5.919769 -82.437109 -90.373101 0.087783 -124.825264 27.554068 8.444210 150.436981 0.000000 0.000000 0.000000 0.000000 0.000000 0.000000 -28.185601 30.477961 14.330813 -78.544379 6.618163 -7.601499 36.035582 5.767956 -2.464040 19.524473 -65.147623 79.156781 0.000000 0.000000 0.000000 0.000000 0.000000 0.000000 -0.106554 -5.587384 0.395505 0.025720 1.170818 0.365500 9.894516 16.277430 -29.851427 0.000000 0.000000 0.000000 -2.121375 -3.404006 -5.486183 -0.692623 -7.127323 6.859657 17.139741 11.146867 0.865277 0.000000 0.000000 0.000000
28.743985 39.277842 369.339376 0.123868 3.834981 4.940056 1.128018 -0.097027 -4.866717 1.074946 0.492357 0.179744 -15.220728 -11.311669 0.121449 0.000000 0.000000 0.000000 -26.219446 15.277807 -0.534948 -119.627847 1.473742 -71.906560 -85.654245 5.359444 -138.517052 12.205784 1.328378 145.354206 0.000000 0.000000 0.000000 0.000000 0.000000 0.000000 -23.420478 26.861588 12.471489 -78.059506 8.709511 -3.731933 31.445499 11.064005 -3.455731 0.312548 -57.913471 53.145594 0.000000 0.000000 0.000000 0.000000 0.000000 0.000000 0.382076 -4.986447 -5.197820 0.422393 0.986407 0.285290 2.263921 21.228553 -23.655358 0.000000 0.000000 0.000000 -0.955805 -3.253551 -9.923214 -0.981586 -6.643476 5.662773 17.087017 11.023312 0.985687 0.000000 0.000000 0.000000
29.016564 39.450369 369.141608 -1.118384 3.396115 12.060670 1.327323 -0.375973 -11.978023 0.893554 0.422693 0.113788 -8.582216 -7.465131 0.404604 0.000000 0.000000 0.000000 -19.135292 9.049107 -0.671726 -110.035622 18.075146 -58.750266 -70.973149 16.954581 -162.904940 15.762425 3.652730 140.345616 0.000000 0.000000 0.000000 0.000000 0.000000 0.000000 -18.145394 21.464255 9.455901 -71.788399 8.608522 -0.981243 23.801144 8.066528 0.066182 -12.989447 -26.980063 27.612339 0.000000 0.000000 0.000000 0.000000 0.000000 0.000000 1.059225 -4.805069 -12.283346 0.458057 0.998694 0.298935 -7.063332 25.525962 -15.496792 0.000000 0.000000 0.000000 0.356804 -3.676643 -15.577310 -1.597988 -5.922273 4.280916 17.195867 10.932156 1.118068 0.000000 0.000000 0.000000
29.304939 39.745149 368.970707 -2.329033 2.964204 19.128238 1.582910 -0.656906 -19.040892 0.756088 0.330017 0.058516 -1.960416 -3.755406 0.195460 0.000000 0.000000 0.000000 -12.242649 2.605205 -0.224044 -102.156715 37.205119 -48.458369 -43.165667 22.175990 164.198591 21.005499 9.427344 136.343424 0.000000 0.000000 0.000000 0.000000 0.000000 0.000000 -13.065888 15.706757 6.697462 -72.777936 13.481297 3.413450 21.149694 0.543911 6.191941 5.577659 -11.763329 12.423508 0.000000 0.000000 0.000000 0.000000 0.000000 0.000000 1.827970 -5.091709 -19.338039 0.223998 1.215223 0.335717 -10.172936 27.284056 -13.128544 0.000000 0.000000 0.000000 1.590303 -4.645253 -21.158362 -2.392661 -4.981014 2.879231 17.447021 10.763765 1.302029 0.000000 0.000000 0.000000
29.536763 40.138800 368.911205 -3.305813 2.498691 25.837648 1.738154 -0.930913 -25.758946 0.672627 0.339776 0.015690 3.191700 -0.839102 -0.258652 0.000000 0.000000 0.000000 -5.589727 -3.159423 0.639153 -94.736151 58.511232 -42.926270 -16.919752 10.805756 136.498910 37.872898 29.451156 139.182260 0.000000 0.000000 0.000000 0.000000 0.000000 0.000000 -8.580605 10.664405 4.514459 -69.509514 17.888401 4.727306 14.659673 4.029856 4.594331 22.153580 -14.460222 10.797768 0.000000 0.000000 0.000000 0.000000 0.000000 0.000000 2.418721 -5.736570 -26.260776 -0.265553 1.618351 0.586191 -10.561098 27.496247 -12.675961 0.000000 0.000000 0.000000 2.416132 -5.810412 -26.829096 -3.346100 -4.077029 1.934350 17.751586 10.647809 1.369315 0.000000 0.000000 0.000000
29.582881 40.559617 368.885154 -4.017497 2.205915 31.150844 1.764042 -1.150502 -31.085318 0.590998 0.338506 -0.019096 6.226549 0.766120 -0.597766 0.000000 0.000000 0.000000 0.363955 -7.743907 1.709698 -83.540981 71.025989 -45.165855 -5.472072 -1.879552 121.592728 30.189213 26.306738 130.249219 0.000000 0.000000 0.000000 0.000000 0.000000 0.000000 -4.962908 6.461318 2.939417 -57.074288 21.015407 0.787160 8.596226 5.025844 2.294083 34.651240 -23.332589 25.553727 0.000000 0.000000 0.000000 0.000000 0.000000 0.000000 2.720343 -6.619563 -31.910454 -0.683083 1.989127 0.947352 -7.982795 28.539859 -16.173943 0.000000 0.000000 0.000000 2.818741 -7.086559 -31.505765 -4.106051 -3.157610 1.367898 17.940182 10.471726 1.477770 0.000000 0.000000 0.000000
29.380586 40.912585 368.519454 -4.316476 2.853936 33.992809 1.541484 -1.599942 -33.902864 0.576710 0.280815 -0.029237 6.004706 0.504983 -0.473308 0.000000 0.000000 0.000000 4.694814 -10.858134 2.569342 -60.931609 75.636724 -59.280259 -2.203022 -10.854738 110.749854 20.686998 20.395046 116.393374 0.000000 0.000000 0.000000 0.000000 0.000000 0.000000 -1.955801 1.847303 1.547224 -35.542940 20.976859 -7.598157 25.704112 -7.249175 4.434405 3.113656 -2.954090 7.674876 0.000000 0.000000 0.000000 0.000000 0.000000 0.000000 2.337996 -7.968807 -34.665220 -1.080591 2.358947 0.902158 -8.227249 26.208367 -14.230843 0.000000 0.000000 0.000000 2.453110 -8.648634 -34.096125 -4.587892 -2.591283 1.194018 19.679228 5.806093 4.610818 0.000000 0.000000 0.000000
29.212385 41.108681 368.294837 -3.371169 3.553932 33.856158 0.980366 -1.363100 -33.772840 0.676497 0.245989 0.000019 2.086742 -1.501936 0.044236 0.000000 0.000000 0.000000 7.748526 -15.142069 3.955128 -39.541729 75.529588 -70.067518 -5.726737 -17.177749 98.676306 2.205495 12.102189 96.529205 0.000000 0.000000 0.000000 0.000000 0.000000 0.000000 -0.089115 -2.560368 0.455916 -19.280105 18.793142 -13.174355 50.914715 -15.809604 26.313998 -42.881323 25.170743 4.035515 0.000000 0.000000 0.000000 0.000000 0.000000 0.000000 1.224572 -8.418286 -34.495347 -1.386215 2.600212 0.834366 -8.227836 24.062308 -12.628435 0.000000 0.000000 0.000000 1.308910 -8.909356 -34.163121 -4.819219 -2.370988 1.370202 19.444780 6.781510 3.932240 0.000000 0.000000 0.000000
29.252544 41.082044 368.178993 -2.992290 3.550177 30.939113 0.899952 -0.935332 -30.871849 0.549843 0.166140 -0.009723 1.647487 -1.568821 0.135007 0.000000 0.000000 0.000000 9.404681 -16.810831 4.644269 -27.757605 68.463533 -66.893582 -13.625872 -16.581344 83.751948 -19.498659 8.611672 67.027561 0.000000 0.000000 0.000000 0.000000 0.000000 0.000000 1.705427 -5.466526 -0.185100 -6.472808 14.150196 -15.086508 40.691279 -14.462772 23.943362 -43.973501 25.904270 1.473835 0.000000 0.000000 0.000000 0.000000 0.000000 0.000000 1.346749 -8.133465 -31.068799 -1.420474 2.560875 0.330840 -7.971133 22.266237 -11.544658 0.000000 0.000000 0.000000 1.353318 -8.236025 -31.506598 -4.675304 -2.511916 1.600784 17.495613 12.713658 -0.024505 0.000000 0.000000 0.000000
